<?xml version="1.0" encoding="utf-8"?>
<?xml-stylesheet type="text/xsl" href="rss1.xsl"?>
<rss version="2.0" xmlns:atom="http://www.w3.org/2005/Atom" xmlns:content="http://purl.org/rss/1.0/modules/content/" xmlns:dc="http://purl.org/dc/elements/1.1/" xmlns:media="http://search.yahoo.com/mrss/">
<channel>
 <title>Getty</title>
 <link>http://www.gettyimg.com/</link>
 <atom:link href="http://www.gettyimg.com/" rel="self" type="application/rss+xml" />

 
                <item>
                <title><![CDATA[【Albums (lossless)】FLAC - Linkin Park - Minutes To Midnight [Vinyl Rip] [FLAC 24bit/192kHz]]]></title>
                <link><![CDATA[https://sharemania.us/threads/linkin-park-minutes-to-midnight-vinyl-rip-flac-24bit-192khz.242480/]]></link>
                <description><![CDATA[<article>
<blockquote class="messageText SelectQuoteContainer ugc baseHtml">
<img src="https://ia601003.us.archive.org/BookReader/BookReaderImages.php?zip=/4/items/cd_minutes-to-midnight_linkin-park/cd_minutes-to-midnight_linkin-park_jp2.zip&amp;file=cd_minutes-to-midnight_linkin-park_jp2/cd_minutes-to-midnight_linkin-park_0000.jp2&amp;id=cd_minutes-to-midnight_linkin-park" class="bbCodeImage LbImage" alt="[​IMG]" data-url="https://ia601003.us.archive.org/BookReader/BookReaderImages.php?zip=/4/items/cd_minutes-to-midnight_linkin-park/cd_minutes-to-midnight_linkin-park_jp2.zip&amp;file=cd_minutes-to-midnight_linkin-park_jp2/cd_minutes-to-midnight_linkin-park_0000.jp2&amp;id=cd_minutes-to-midnight_linkin-park" style=""> <br>
<br>
<b>Ripped using Foobar2000</b><br>
<div class="bbCodeBlock bbCodeCode">
<div class="type">Code:</div>
<pre>foobar2000 1.3.16 / Dynamic Range Meter 1.1.1
log date: 2018-03-05 17:23:04

--------------------------------------------------------------------------------
Analyzed: Linkin Park / Minutes to Midnight
--------------------------------------------------------------------------------

DR         Peak         RMS     Duration Track
--------------------------------------------------------------------------------
DR11      -0.65 dB   -17.08 dB      1:41 01-Wake
DR10      -0.78 dB   -12.71 dB      3:09 02-Given Up
DR10      -0.27 dB   -13.65 dB      3:19 03-Leave Out All The Rest
DR11      -0.52 dB   -13.55 dB      2:55 04-Bleed It Out
DR11      -0.42 dB   -14.32 dB      4:49 05-Shadow Of The Day
DR10       0.00 dB   -13.49 dB      3:27 06-What I've Done
DR12      -2.12 dB   -17.56 dB      3:53 07-Hands Held High
DR11       0.00 dB   -13.29 dB      3:40 08-No More Sorrow
DR10      -0.07 dB   -13.30 dB      3:19 09-Valentine's Day
DR9       -2.92 dB   -14.42 dB      3:16 10-In Between
DR10      -0.68 dB   -13.72 dB      3:38 11-In Pieces
DR10      -0.61 dB   -14.38 dB      6:23 12-The Little Things Give You Away
--------------------------------------------------------------------------------

Number of tracks:  12
Official DR value: DR10

Samplerate:        192000 Hz
Channels:          2
Bits per sample:   24
Bitrate:           5548 kbps
Codec:             FLAC
================================================================================
</pre>
</div><b>Tracklist:</b><br>
1. Wake<br>
2. Given Up<br>
3. Leave Out All the Rest<br>
4. Bleed It Out<br>
5. Shadow of the Day<br>
6. What I've Done<br>
7. Hands Held High<br>
8. No More Sorrow<br>
9. Valentine's Day<br>
10. In Between<br>
11. In Pieces<br>
12. The Little Things Give You Away<br>
<br>
<b><span style="color: #ff0000">DOWNLOAD:</span><br>
Password: </b>SharemaniaOLOBER <br>
<div class="bbCodeBlock bbCodeVfcHH HiddenContent">
<div class="attribution type">Hidden Content:</div>
<blockquote>You must reply before you can see the hidden data contained here.</blockquote>
</div>
<div class="messageTextEndMarker">&nbsp;</div>
</blockquote>
</article>]]></description>
                <author><![CDATA[olobersykes99]]></author>
                </item>

                
                <item>
                <title><![CDATA[【Albums (lossless)】FLAC - Linkin Park - Meteora [Vinyl Rip] [FLAC 24bit/192kHz]]]></title>
                <link><![CDATA[https://sharemania.us/threads/linkin-park-meteora-vinyl-rip-flac-24bit-192khz.242479/]]></link>
                <description><![CDATA[<article>
<blockquote class="messageText SelectQuoteContainer ugc baseHtml">
<img src="https://ia801409.us.archive.org/15/items/lp-meteora-enhanced-cd/cd_meteora_linkin-park_0000.jpg" class="bbCodeImage LbImage" alt="[​IMG]" data-url="https://ia801409.us.archive.org/15/items/lp-meteora-enhanced-cd/cd_meteora_linkin-park_0000.jpg" style=""> <br>
<b><br>
Ripped using Foobar2000</b><br>
<div class="bbCodeBlock bbCodeCode">
<div class="type">Code:</div>
<pre>foobar2000 1.3.16 / Dynamic Range Meter 1.1.1
log date: 2018-03-05 17:21:32

--------------------------------------------------------------------------------
Analyzed: Linkin Park / Meteora
--------------------------------------------------------------------------------

DR         Peak         RMS     Duration Track
--------------------------------------------------------------------------------
DR8       -2.13 dB   -21.56 dB      0:14 01-Foreword
DR10       0.00 dB   -10.87 dB      3:08 02-Don't Stay
DR10       0.00 dB   -10.91 dB      3:34 03-Somewhere I Belong
DR10       0.00 dB   -10.77 dB      2:57 04-Lying From You
DR10       0.00 dB   -11.55 dB      2:46 05-Hit The Floor
DR10       0.00 dB   -10.69 dB      3:22 06-Easier To Run
DR10       0.00 dB   -12.27 dB      2:47 07-Faint
DR10       0.00 dB   -11.33 dB      3:17 08-Figure.09
DR9       -0.24 dB   -10.79 dB      3:17 09-Breaking The Habit
DR10      -0.27 dB   -10.93 dB      2:59 10-From The Inside
DR11       0.00 dB   -11.73 dB      2:59 11-Nobody's Listening
DR9       -0.08 dB   -10.94 dB      2:24 12-Session
DR10       0.00 dB   -10.90 dB      3:10 13-Numb
--------------------------------------------------------------------------------

Number of tracks:  13
Official DR value: DR10

Samplerate:        192000 Hz
Channels:          2
Bits per sample:   24
Bitrate:           6063 kbps
Codec:             FLAC
================================================================================
</pre>
</div><b>Tracklist:</b><br>
1. Foreword<br>
2. Don’t Stay<br>
3. Somewhere I Belong<br>
4. Lying From You<br>
5. Hit the Floor<br>
6. Easier to Run<br>
7. Faint<br>
8. Figure.09<br>
9. Breaking the Habit<br>
10. From the Inside<br>
11. Nobody’s Listening<br>
12. Session<br>
13. Numb<br>
<br>
<b><span style="color: #ff0000">DOWNLOAD:</span><br>
Password: </b>SharemaniaOLOBER<br>
<div class="bbCodeBlock bbCodeVfcHH HiddenContent">
<div class="attribution type">Hidden Content:</div>
<blockquote>You must reply before you can see the hidden data contained here.</blockquote>
</div>
<div class="messageTextEndMarker">&nbsp;</div>
</blockquote>
</article>]]></description>
                <author><![CDATA[olobersykes99]]></author>
                </item>

                </channel></rss>